<?xml version="1.0" encoding="utf-8"?>
<!-- Generator: Adobe Illustrator 19.0.0, SVG Export Plug-In . SVG Version: 6.00 Build 0)  -->
<svg version="1.1" id="Шар_1" xmlns="http://www.w3.org/2000/svg" xmlns:xlink="http://www.w3.org/1999/xlink" x="0px" y="0px"
	 width="125.3px" height="100.2px" viewBox="0 0 125.3 100.2" style="enable-background:new 0 0 125.3 100.2;" xml:space="preserve"
	>
<style type="text/css">
	.st0{fill:#A4236E;}
</style>
<path class="st0" d="M122.1,3.1c-2-2-4.5-3.1-7.4-3.1H10.4C7.6,0,5.1,1,3.1,3.1C1,5.1,0,7.6,0,10.4v79.3c0,2.9,1,5.3,3.1,7.4
	c2,2,4.5,3.1,7.4,3.1h104.3c2.9,0,5.3-1,7.4-3.1c2-2,3.1-4.5,3.1-7.4V10.4C125.1,7.6,124.1,5.1,122.1,3.1L122.1,3.1z M116.8,89.7
	c0,0.6-0.2,1.1-0.6,1.5s-0.9,0.6-1.5,0.6H10.4c-0.6,0-1.1-0.2-1.5-0.6s-0.6-0.9-0.6-1.5V10.4c0-0.5,0.2-1,0.7-1.4s0.9-0.6,1.5-0.6
	h104.3c0.6,0,1.1,0.2,1.5,0.6c0.4,0.4,0.6,0.9,0.6,1.5L116.8,89.7L116.8,89.7z"/>
<path class="st0" d="M29.2,41.7c3.5,0,6.4-1.2,8.9-3.7c2.4-2.4,3.6-5.4,3.6-8.9s-1.2-6.4-3.6-8.9c-2.4-2.4-5.4-3.6-8.9-3.6
	s-6.4,1.2-8.9,3.6c-2.4,2.4-3.6,5.4-3.6,8.9s1.2,6.4,3.6,8.9C22.8,40.5,25.7,41.7,29.2,41.7L29.2,41.7z"/>
<path class="st0" d="M48,60.5L37.5,50.1L16.7,70.9v12.5h91.8V54.2L81.3,27.1L48,60.5z"/>
</svg>
