<?xml version="1.0" encoding="utf-8"?>
<!-- Generator: Adobe Illustrator 19.0.0, SVG Export Plug-In . SVG Version: 6.00 Build 0)  -->
<svg version="1.1" id="Шар_1" xmlns="http://www.w3.org/2000/svg" xmlns:xlink="http://www.w3.org/1999/xlink" x="0px" y="0px"
	 viewBox="0 0 11.2 8" style="enable-background:new 0 0 11.2 8;" xml:space="preserve">
<style type="text/css">
	.st0{fill:#FFFFFF;}
</style>
<g>
	<path class="st0" d="M5.6,5.6L4.2,4.4l-4,3.4C0.4,7.9,0.6,8,0.8,8h9.6c0.2,0,0.4-0.1,0.5-0.2L7,4.4L5.6,5.6z M5.6,5.6"/>
	<path class="st0" d="M10.9,0.2C10.8,0.1,10.6,0,10.4,0H0.8C0.6,0,0.4,0.1,0.3,0.2l5.3,4.6L10.9,0.2z M10.9,0.2"/>
	<path class="st0" d="M0,0.7v6.6l3.9-3.3L0,0.7z M0,0.7"/>
	<path class="st0" d="M7.3,4.1l3.9,3.3V0.7L7.3,4.1z M7.3,4.1"/>
</g>
</svg>
