<?xml version="1.0" encoding="utf-8"?>
<!-- Generator: Adobe Illustrator 19.0.0, SVG Export Plug-In . SVG Version: 6.00 Build 0)  -->
<svg version="1.1" id="Capa_1" xmlns="http://www.w3.org/2000/svg" xmlns:xlink="http://www.w3.org/1999/xlink" x="0px" y="0px"
	 viewBox="-49 216.6 512 360.8" style="enable-background:new -49 216.6 512 360.8;" xml:space="preserve">
<style type="text/css">
	.st0{fill:#FFFFFF;}
</style>
<g>
	<path class="st0" d="M370.2,216.6H43.8L-49,340.3l256,237.1l256-237.1L370.2,216.6z M304.5,349.2L207,540.9l-96.7-191.7
		L304.5,349.2L304.5,349.2z M119.4,328.8l87.6-87.6l87.6,87.6H119.4z M231.6,237h118.5l-33.5,85.1L231.6,237z M98.6,320.8L70.7,237
		h111.7L98.6,320.8z M87.5,349.2l84.9,168.3L-9.3,349.2H87.5z M327.4,349.2h95.9L242,517.2L327.4,349.2z M336,328.8l32-81.3l61,81.3
		H336z M50.6,241.4l29.1,87.4h-94.7L50.6,241.4z"/>
</g>
</svg>
