<?xml version="1.0" encoding="utf-8"?>
<!-- Generator: Adobe Illustrator 19.0.0, SVG Export Plug-In . SVG Version: 6.00 Build 0)  -->
<svg version="1.1" id="Шар_1" xmlns="http://www.w3.org/2000/svg" xmlns:xlink="http://www.w3.org/1999/xlink" x="0px" y="0px"
	 viewBox="0 0 125.1 100.1" style="enable-background:new 0 0 125.1 100.1;" xml:space="preserve">
<style type="text/css">
	.st0{fill:#DAD6D7;}
</style>
<path id="XMLID_47_" class="st0" d="M122.1,3.1c-2-2-4.5-3.1-7.4-3.1H10.4C7.6,0,5.1,1,3.1,3.1C1,5.1,0,7.6,0,10.4v79.3
	c0,2.9,1,5.3,3.1,7.4c2,2,4.5,3.1,7.4,3.1h104.3c2.9,0,5.3-1,7.4-3.1c2-2,3.1-4.5,3.1-7.4V10.4C125.1,7.6,124.1,5.1,122.1,3.1
	L122.1,3.1z M116.8,89.7c0,0.6-0.2,1.1-0.6,1.5c-0.4,0.4-0.9,0.6-1.5,0.6H10.4c-0.6,0-1.1-0.2-1.5-0.6c-0.4-0.4-0.6-0.9-0.6-1.5
	V10.4C8.3,9.9,8.5,9.4,9,9s0.9-0.6,1.5-0.6h104.3c0.6,0,1.1,0.2,1.5,0.6c0.4,0.4,0.6,0.9,0.6,1.5V89.7z M116.8,89.7"/>
<path id="XMLID_44_" class="st0" d="M29.2,41.7c3.5,0,6.4-1.2,8.9-3.7c2.4-2.4,3.6-5.4,3.6-8.9c0-3.5-1.2-6.4-3.6-8.9
	c-2.4-2.4-5.4-3.6-8.9-3.6c-3.5,0-6.4,1.2-8.9,3.6c-2.4,2.4-3.6,5.4-3.6,8.9c0,3.5,1.2,6.4,3.6,8.9C22.8,40.5,25.7,41.7,29.2,41.7
	L29.2,41.7z M29.2,41.7"/>
<path id="XMLID_41_" class="st0" d="M48,60.5L37.5,50.1L16.7,70.9v12.5h91.8V54.2L81.3,27.1L48,60.5z M48,60.5"/>
</svg>
