<?xml version="1.0" encoding="utf-8"?>
<!-- Generator: Adobe Illustrator 19.0.0, SVG Export Plug-In . SVG Version: 6.00 Build 0)  -->
<svg version="1.1" id="Capa_1" xmlns="http://www.w3.org/2000/svg" xmlns:xlink="http://www.w3.org/1999/xlink" x="0px" y="0px"
	 viewBox="-49 219.3 512 355.4" style="enable-background:new -49 219.3 512 355.4;" xml:space="preserve">
<style type="text/css">
	.st0{fill:#A4236E;}
</style>
<g>
	<path class="st0" d="M245,410h-29.4v-59.3c0-4.7-3.8-8.6-8.6-8.6c-4.7,0-8.6,3.8-8.6,8.6v67.9c0,4.7,3.8,8.6,8.6,8.6h38
		c4.7,0,8.6-3.8,8.6-8.6C253.6,413.9,249.7,410,245,410z"/>
	<path class="st0" d="M427.2,289.5h-78.8c-32.5-42.7-83.8-70.2-141.4-70.2S98.1,246.9,65.6,289.5h-78.8c-19.7,0-35.8,16.1-35.8,35.8
		v159.4c0,19.7,16.1,35.8,35.8,35.8h92.6c32.3,33.4,77.6,54.1,127.6,54.1s95.2-20.8,127.6-54.1h92.6c19.7,0,35.8-16.1,35.8-35.8
		V325.4C463,305.6,446.9,289.5,427.2,289.5z M-13.2,494.8c-5.5,0-10-4.5-10-10V325.4c0-5.5,4.5-10,10-10h62.4
		c-12.7,24.5-19.9,52.3-19.9,81.7c0,36.1,10.8,69.7,29.4,97.8H-13.2z M207,548.9c-83.8,0-151.9-68.2-151.9-151.9
		S123.2,245.1,207,245.1S358.9,313.2,358.9,397S290.8,548.9,207,548.9z M437.2,484.8c0,5.5-4.5,10-10,10h-71.9
		c18.6-28.1,29.4-61.7,29.4-97.8c0-29.4-7.2-57.2-19.9-81.7h62.4c5.5,0,10,4.5,10,10L437.2,484.8L437.2,484.8z"/>
	<path class="st0" d="M207,274.3c-67.7,0-122.7,55.1-122.7,122.7S139.3,519.7,207,519.7S329.7,464.7,329.7,397
		S274.7,274.3,207,274.3z M207,502.5c-58.2,0-105.5-47.3-105.5-105.5S148.8,291.5,207,291.5S312.5,338.8,312.5,397
		S265.2,502.5,207,502.5z"/>
</g>
</svg>
