<?xml version="1.0" encoding="utf-8"?>
<!-- Generator: Adobe Illustrator 19.0.0, SVG Export Plug-In . SVG Version: 6.00 Build 0)  -->
<svg version="1.1" id="Шар_1" xmlns="http://www.w3.org/2000/svg" xmlns:xlink="http://www.w3.org/1999/xlink" x="0px" y="0px"
	 viewBox="0 0 463 463" style="enable-background:new 0 0 463 463;" xml:space="preserve">
<style type="text/css">
	.st0{clip-path:url(#SVGID_2_);fill:#FFFFFF;}
</style>
<g>
	<g>
		<defs>
			<rect id="SVGID_1_" x="0" width="463" height="463"/>
		</defs>
		<clipPath id="SVGID_2_">
			<use xlink:href="#SVGID_1_"  style="overflow:visible;"/>
		</clipPath>
		<path class="st0" d="M462.3,364.8c1,7.5-1.3,14-6.9,19.6L390.3,449c-2.9,3.3-6.8,6-11.5,8.3c-4.7,2.3-9.4,3.8-14,4.4
			c-0.3,0-1.3,0.1-2.9,0.2c-1.6,0.2-3.8,0.2-6.4,0.2c-6.2,0-16.2-1.1-30.1-3.2c-13.9-2.1-30.8-7.3-50.9-15.7
			c-20.1-8.3-42.8-20.8-68.3-37.5c-25.5-16.6-52.6-39.5-81.3-68.5c-22.8-22.5-41.8-44.1-56.8-64.6c-15-20.6-27.1-39.6-36.2-57
			c-9.1-17.5-16-33.3-20.6-47.5C6.8,154,3.7,141.7,2,131.5c-1.6-10.3-2.3-18.4-2-24.2c0.3-5.9,0.5-9.1,0.5-9.8
			c0.7-4.6,2.1-9.2,4.4-14c2.3-4.7,5.1-8.6,8.3-11.5L78.4,6.9C83,2.3,88.2,0,94.1,0c4.2,0,8,1.2,11.3,3.7c3.3,2.4,6,5.5,8.3,9.1
			l52.4,99.4c2.9,5.2,3.8,10.9,2.4,17.1c-1.3,6.2-4.1,11.4-8.3,15.7l-24,24c-0.7,0.7-1.2,1.7-1.7,3.2c-0.5,1.5-0.7,2.7-0.7,3.7
			c1.3,6.9,4.2,14.7,8.8,23.5c3.9,7.8,10,17.4,18.1,28.6c8.2,11.3,19.7,24.2,34.8,38.9c14.7,15,27.7,26.7,39.2,35
			c11.4,8.3,21,14.4,28.6,18.4c7.7,3.9,13.5,6.3,17.6,7.1l6.1,1.2c0.7,0,1.7-0.2,3.2-0.7c1.5-0.5,2.5-1.1,3.2-1.7l27.9-28.4
			c5.9-5.2,12.7-7.8,20.6-7.8c5.6,0,10,1,13.2,2.9h0.5l94.5,55.8C456.9,352.8,461,358.2,462.3,364.8L462.3,364.8z M462.3,364.8"/>
	</g>
</g>
</svg>
