<?xml version="1.0" encoding="utf-8"?>
<!-- Generator: Adobe Illustrator 19.0.0, SVG Export Plug-In . SVG Version: 6.00 Build 0)  -->
<svg version="1.1" id="Шар_1" xmlns="http://www.w3.org/2000/svg" xmlns:xlink="http://www.w3.org/1999/xlink" x="0px" y="0px"
	 width="512px" height="360.8px" viewBox="0 0 512 360.8" style="enable-background:new 0 0 512 360.8;" xml:space="preserve">
<style type="text/css">
	.st0{fill:#A4236E;}
</style>
<g>
	<path class="st0" d="M419.2,0H92.8L0,123.7l256,237.1l256-237.1L419.2,0z M353.5,132.6L256,324.3l-96.7-191.7H353.5L353.5,132.6z
		 M168.4,112.2L256,24.6l87.6,87.6H168.4z M280.6,20.4h118.5l-33.5,85.1L280.6,20.4z M147.6,104.2l-27.9-83.8h111.7L147.6,104.2z
		 M136.5,132.6l84.9,168.3L39.7,132.6H136.5z M376.4,132.6h95.9L291,300.6L376.4,132.6z M385,112.2l32-81.3l61,81.3H385z M99.6,24.8
		l29.1,87.4H34L99.6,24.8z"/>
</g>
</svg>
