<?xml version="1.0" encoding="utf-8"?>
<!-- Generator: Adobe Illustrator 19.0.0, SVG Export Plug-In . SVG Version: 6.00 Build 0)  -->
<svg version="1.1" id="Шар_1" xmlns="http://www.w3.org/2000/svg" xmlns:xlink="http://www.w3.org/1999/xlink" x="0px" y="0px"
	 viewBox="0 0 21.6 19.2" style="enable-background:new 0 0 21.6 19.2;" xml:space="preserve">
<style type="text/css">
	.st0{fill:#FFFFFF;}
</style>
<g>
	<path class="st0" d="M2.9,18.7c0,0,0,0.5,0.5,0.5c0.6,0,5.4,0,5.4,0l0-4.5c0,0-0.1-0.7,0.6-0.7h2.3c0.8,0,0.8,0.7,0.8,0.7l0,4.5
		h5.3c0.6,0,0.6-0.6,0.6-0.6v-8.2l-7.5-6.7l-8,6.7V18.7z M2.9,18.7"/>
	<path class="st0" d="M0,9.7c0,0,0.7,1.3,2.2,0L11,2.2l8.3,7.4c1.7,1.2,2.4,0,2.4,0L11,0L0,9.7z M0,9.7"/>
	<path class="st0" d="M19.1,2.2h-2.1l0,2.6l2.1,1.8V2.2z M19.1,2.2"/>
</g>
</svg>
