<?xml version="1.0" encoding="utf-8"?>
<!-- Generator: Adobe Illustrator 19.0.0, SVG Export Plug-In . SVG Version: 6.00 Build 0)  -->
<svg version="1.1" id="LOGO" xmlns="http://www.w3.org/2000/svg" xmlns:xlink="http://www.w3.org/1999/xlink" x="0px" y="0px"
	 width="177.4px" height="50.1px" viewBox="0 0 177.4 50.1" style="enable-background:new 0 0 177.4 50.1;" xml:space="preserve">
<style type="text/css">
	.st0{fill:#FFFFFF;}
</style>
<g>
	<path class="st0" d="M0,0.8h6.3v43.3H27v5.3H0V0.8z"/>
	<path class="st0" d="M75.5,24.6c0,16.7-10.2,25.6-22.5,25.6c-12.8,0-21.8-9.9-21.8-24.6C31.2,10.1,40.8,0,53.7,0
		C67,0,75.5,10.2,75.5,24.6z M37.9,25.3c0,10.4,5.6,19.7,15.5,19.7c9.9,0,15.6-9.1,15.6-20.2c0-9.6-5-19.7-15.5-19.7
		C43.1,5.1,37.9,14.7,37.9,25.3z"/>
	<path class="st0" d="M123.5,47.2c-2.8,1-8.4,2.7-14.9,2.7c-7.3,0-13.4-1.9-18.1-6.4c-4.2-4-6.8-10.5-6.8-18.1
		c0.1-14.5,10-25.1,26.3-25.1c5.6,0,10,1.2,12.1,2.2l-1.5,5.1c-2.6-1.2-5.8-2.1-10.7-2.1c-11.8,0-19.5,7.3-19.5,19.5
		c0,12.3,7.4,19.6,18.7,19.6c4.1,0,6.9-0.6,8.4-1.3V28.9h-9.9v-5h16V47.2z"/>
	<path class="st0" d="M177.4,24.6c0,16.7-10.2,25.6-22.5,25.6c-12.8,0-21.8-9.9-21.8-24.6c0-15.4,9.6-25.5,22.5-25.5
		C168.8,0,177.4,10.2,177.4,24.6z M139.8,25.3c0,10.4,5.6,19.7,15.5,19.7c9.9,0,15.6-9.1,15.6-20.2c0-9.6-5-19.7-15.5-19.7
		C144.9,5.1,139.8,14.7,139.8,25.3z"/>
</g>
</svg>
